<?xml version="1.0" encoding="UTF-8"?>
<svg height="600" width="800" xmlns="http://www.w3.org/2000/svg" xmlns:xlink="http://www.w3.org/1999/xlink">
    <g id="Notes" font-family="'LucidaGrande', 'Lucida Grande', sans-serif" font-size="13">
        <rect fill="white" height="600.0" width="800.0" x="0.0" y="0.0" />
        <g font-size="13">
            <text x="18.0" y="176.0">Small</text>
            <text x="18.0" y="376.0">Medium</text>
            <text x="18.0" y="576.0">Large</text>
        </g>
        <g font-size="9">
            <text x="250.0" y="30.0">Ultralight</text>
            <text x="450.0" y="30.0">Regular</text>
            <text x="650.0" y="30.0">Black</text>
            <text id="template-version" fill="#505050" text-anchor="end" x="785.0" y="575.0">Template v.3.0</text>
            <a href="https://wangchujiang.com/#/app">
                <text fill="#505050" text-anchor="end" x="785.0" y="590.0">https://wangchujiang.com/#/app</text>
            </a>
        </g>
    </g>
    <g id="Guides" stroke="rgb(39, 170, 225)" stroke-width="0.5">
        <path id="Capline-S" d="M18,76 l800,0" />
        <path id="H-reference" d="M85,145.755 L87.685,145.755 L113.369,79.287 L114.052,79.287 L114.052,76 L112.148,76 L85,145.755 Z M95.693,121.536 L130.996,121.536 L130.263,119.313 L96.474,119.313 L95.693,121.536 Z M139.15,145.755 L141.787,145.755 L114.638,76 L113.466,76 L113.466,79.287 L139.15,145.755 Z" stroke="none" />
        <path id="Baseline-S" d="M18,146 l800,0" />
        <path id="left-margin-Ultralight-S" d="M211,56 l0,110" />
        <path id="right-margin-Ultralight-S" d="M319,56 l0,110" />
        <path id="left-margin-Regular-S" d="M411,56 l0,110" />
        <path id="right-margin-Regular-S" d="M519,56 l0,110" />
        <path id="left-margin-Black-S" d="M611,56 l0,110" />
        <path id="right-margin-Black-S" d="M719,56 l0,110" />
        <path id="Capline-M" d="M18,276 l800,0" />
        <path id="Baseline-M" d="M18,346 l800,0" />
        <path id="Capline-L" d="M18,476 l800,0" />
        <path id="Baseline-L" d="M18,546 l800,0" />
    </g>
    <g id="Symbols">
        <g id="Ultralight-S">
            <path d="M265.764,129.603 C278.397,129.555 292.564,129.48 293.668,129.46 C293.824,129.458 293.944,129.458 294.353,129.462 C296.326,129.48 297.553,129.402 298.983,129.041 C301.117,128.502 302.799,127.42 303.888,125.639 C306.148,121.943 309.029,106.881 309,100.991 C308.987,98.45 307.928,96.189 306.118,94.58 C304.534,93.172 302.482,92.371 300.439,92.367 L300.437,93.397 C302.225,93.401 304.035,94.107 305.432,95.349 C307.028,96.768 307.957,98.752 307.968,100.996 C307.997,106.713 305.149,121.6 303.008,125.102 C302.073,126.631 300.622,127.565 298.731,128.042 C297.411,128.375 296.252,128.449 294.362,128.432 C293.942,128.428 293.819,128.428 293.65,128.431 C292.553,128.45 278.383,128.525 265.76,128.574 L265.764,129.603 Z M300.439,92.367 C299.823,92.366 289.329,92.455 286.603,92.475 C279.285,92.53 272.575,92.566 266.225,92.579 C265.941,92.58 265.658,92.58 265.376,92.581 L265.378,93.61 C265.66,93.61 265.943,93.609 266.227,93.609 C272.58,93.596 279.291,93.56 286.611,93.505 C289.348,93.485 299.827,93.396 300.437,93.397 L300.439,92.367 Z M265.764,128.574 C265.712,128.573 265.712,128.573 265.66,128.573 C258.816,128.547 251.819,128.553 243.77,128.579 C242.429,128.583 238.878,128.596 238.619,128.597 C237.193,128.601 236.523,128.602 236.35,128.599 C236.181,128.596 236.058,128.597 235.638,128.601 C233.748,128.618 232.589,128.544 231.269,128.211 C229.378,127.733 227.927,126.799 226.992,125.271 C224.851,121.769 222.003,106.881 222.032,101.165 C222.043,98.921 222.972,96.936 224.568,95.518 C225.965,94.276 227.775,93.569 229.563,93.566 L229.561,92.536 C227.518,92.54 225.466,93.341 223.882,94.749 C222.072,96.358 221.013,98.619 221,101.16 C220.971,107.05 223.852,122.111 226.112,125.807 C227.201,127.588 228.882,128.67 231.017,129.209 C232.446,129.57 233.674,129.649 235.647,129.631 C236.056,129.627 236.176,129.626 236.332,129.629 C236.517,129.632 237.18,129.631 238.623,129.627 C238.882,129.626 242.433,129.613 243.774,129.609 C251.82,129.583 258.815,129.577 265.656,129.603 C265.708,129.603 265.708,129.603 265.76,129.603 L265.764,128.574 Z M229.563,93.566 C231.497,93.561 249.02,93.583 265.376,93.61 L265.378,92.581 C249.019,92.553 231.497,92.531 229.561,92.536 L229.563,93.566 Z M294.175,118.977 C294.175,117.757 293.689,116.586 292.825,115.723 C291.961,114.86 290.788,114.375 289.566,114.375 C288.344,114.375 287.172,114.86 286.307,115.723 C285.443,116.586 284.957,117.757 284.957,118.977 C284.957,120.198 285.443,121.369 286.307,122.232 C287.172,123.095 288.344,123.58 289.566,123.58 C290.788,123.58 291.961,123.095 292.825,122.232 C293.689,121.369 294.175,120.198 294.175,118.977 Z M293.143,118.977 C293.143,119.925 292.767,120.833 292.096,121.503 C291.425,122.173 290.515,122.55 289.566,122.55 C288.617,122.55 287.707,122.173 287.036,121.503 C286.366,120.833 285.989,119.925 285.989,118.977 C285.989,118.03 286.366,117.121 287.036,116.451 C287.707,115.781 288.617,115.405 289.566,115.405 C290.515,115.405 291.425,115.781 292.096,116.451 C292.767,117.121 293.143,118.03 293.143,118.977 Z M277.787,118.977 C277.787,117.757 277.301,116.586 276.437,115.723 C275.573,114.86 274.401,114.375 273.178,114.375 C271.956,114.375 270.784,114.86 269.919,115.723 C269.055,116.586 268.57,117.757 268.57,118.977 C268.57,120.198 269.055,121.369 269.919,122.232 C270.784,123.095 271.956,123.58 273.178,123.58 C274.401,123.58 275.573,123.095 276.437,122.232 C277.301,121.369 277.787,120.198 277.787,118.977 Z M276.756,118.977 C276.756,119.925 276.379,120.833 275.708,121.503 C275.037,122.173 274.127,122.55 273.178,122.55 C272.229,122.55 271.32,122.173 270.649,121.503 C269.978,120.833 269.601,119.925 269.601,118.977 C269.601,118.03 269.978,117.121 270.649,116.451 C271.32,115.781 272.229,115.405 273.178,115.405 C274.127,115.405 275.037,115.781 275.708,116.451 C276.379,117.121 276.756,118.03 276.756,118.977 Z M243.98,118.977 C243.98,120.95 242.378,122.55 240.403,122.55 C239.454,122.55 238.544,122.173 237.873,121.503 C237.202,120.833 236.825,119.925 236.825,118.977 C236.825,118.03 237.202,117.121 237.873,116.451 C238.544,115.781 239.454,115.405 240.403,115.405 C242.378,115.405 243.98,117.004 243.98,118.977 Z M245.011,118.977 C245.011,116.435 242.948,114.375 240.403,114.375 C239.18,114.375 238.008,114.86 237.144,115.723 C236.28,116.586 235.794,117.757 235.794,118.977 C235.794,120.198 236.28,121.369 237.144,122.232 C238.008,123.095 239.18,123.58 240.403,123.58 C242.948,123.58 245.011,121.519 245.011,118.977 Z M261.399,118.977 C261.399,116.435 259.336,114.375 256.791,114.375 C255.568,114.375 254.396,114.86 253.532,115.723 C252.667,116.586 252.182,117.757 252.182,118.977 C252.182,120.198 252.667,121.369 253.532,122.232 C254.396,123.095 255.568,123.58 256.791,123.58 C259.336,123.58 261.399,121.519 261.399,118.977 Z M260.368,118.977 C260.368,120.95 258.766,122.55 256.791,122.55 C255.842,122.55 254.932,122.173 254.261,121.503 C253.59,120.833 253.213,119.925 253.213,118.977 C253.213,118.03 253.59,117.121 254.261,116.451 C254.932,115.781 255.842,115.405 256.791,115.405 C258.766,115.405 260.368,117.004 260.368,118.977 Z M301.78,103.372 C301.78,105.385 300.176,107.013 298.203,107.013 C296.229,107.013 294.625,105.385 294.625,103.372 C294.625,101.36 296.229,99.732 298.203,99.732 C300.176,99.732 301.78,101.36 301.78,103.372 Z M302.811,103.372 C302.811,100.795 300.75,98.702 298.203,98.702 C295.655,98.702 293.594,100.795 293.594,103.372 C293.594,105.95 295.655,108.043 298.203,108.043 C300.75,108.043 302.811,105.95 302.811,103.372 Z M277.215,103.372 C277.215,105.95 279.277,108.043 281.824,108.043 C284.371,108.043 286.433,105.95 286.433,103.372 C286.433,100.795 284.371,98.702 281.824,98.702 C279.277,98.702 277.215,100.795 277.215,103.372 Z M278.246,103.372 C278.246,101.36 279.85,99.732 281.824,99.732 C283.798,99.732 285.401,101.36 285.401,103.372 C285.401,105.385 283.798,107.013 281.824,107.013 C279.85,107.013 278.246,105.385 278.246,103.372 Z M269.022,103.372 C269.022,105.383 267.39,107.013 265.377,107.013 C263.363,107.013 261.731,105.383 261.731,103.372 C261.731,102.407 262.115,101.481 262.799,100.798 C263.483,100.115 264.41,99.732 265.377,99.732 C266.344,99.732 267.271,100.115 267.955,100.798 C268.638,101.481 269.022,102.407 269.022,103.372 Z M270.054,103.372 C270.054,102.134 269.561,100.946 268.684,100.07 C267.807,99.194 266.617,98.702 265.377,98.702 C264.136,98.702 262.947,99.194 262.07,100.07 C261.193,100.946 260.7,102.134 260.7,103.372 C260.7,105.952 262.794,108.043 265.377,108.043 C267.96,108.043 270.054,105.952 270.054,103.372 Z M252.507,103.372 C252.507,105.385 250.904,107.013 248.93,107.013 C246.956,107.013 245.352,105.385 245.352,103.372 C245.352,101.36 246.956,99.732 248.93,99.732 C250.904,99.732 252.507,101.36 252.507,103.372 Z M253.538,103.372 C253.538,100.795 251.477,98.702 248.93,98.702 C246.382,98.702 244.321,100.795 244.321,103.372 C244.321,105.95 246.382,108.043 248.93,108.043 C251.477,108.043 253.538,105.95 253.538,103.372 Z M236.128,103.372 C236.128,105.385 234.525,107.013 232.551,107.013 C230.577,107.013 228.973,105.385 228.973,103.372 C228.973,101.36 230.577,99.732 232.551,99.732 C234.525,99.732 236.128,101.36 236.128,103.372 Z M237.16,103.372 C237.16,100.795 235.098,98.702 232.551,98.702 C230.004,98.702 227.942,100.795 227.942,103.372 C227.942,105.95 230.004,108.043 232.551,108.043 C235.098,108.043 237.16,105.95 237.16,103.372 Z" />
        </g>
        <g id="Regular-S">
            <path d="M465.764,129.603 C478.397,129.555 492.564,129.48 493.668,129.46 C493.824,129.458 493.944,129.458 494.353,129.462 C496.326,129.48 497.553,129.402 498.983,129.041 C501.117,128.502 502.799,127.42 503.888,125.639 C506.148,121.943 509.029,106.881 509,100.991 C508.987,98.45 507.928,96.189 506.118,94.58 C504.534,93.172 502.482,92.371 500.439,92.367 L500.437,93.397 C502.225,93.401 504.035,94.107 505.432,95.349 C507.028,96.768 507.957,98.752 507.968,100.996 C507.997,106.713 505.149,121.6 503.008,125.102 C502.073,126.631 500.622,127.565 498.731,128.042 C497.411,128.375 496.252,128.449 494.362,128.432 C493.942,128.428 493.819,128.428 493.65,128.431 C492.553,128.45 478.383,128.525 465.76,128.574 L465.764,129.603 Z M500.439,92.367 C499.823,92.366 489.329,92.455 486.603,92.475 C479.285,92.53 472.575,92.566 466.225,92.579 C465.941,92.58 465.658,92.58 465.376,92.581 L465.378,93.61 C465.66,93.61 465.943,93.609 466.227,93.609 C472.58,93.596 479.291,93.56 486.611,93.505 C489.348,93.485 499.827,93.396 500.437,93.397 L500.439,92.367 Z M465.764,128.574 C465.712,128.573 465.712,128.573 465.66,128.573 C458.816,128.547 451.819,128.553 443.77,128.579 C442.429,128.583 438.878,128.596 438.619,128.597 C437.194,128.601 436.523,128.602 436.35,128.599 C436.181,128.596 436.058,128.597 435.638,128.601 C433.748,128.618 432.589,128.544 431.269,128.211 C429.378,127.733 427.927,126.799 426.992,125.271 C424.851,121.769 422.003,106.881 422.032,101.165 C422.043,98.921 422.972,96.936 424.568,95.518 C425.965,94.276 427.775,93.569 429.563,93.566 L429.561,92.536 C427.518,92.54 425.466,93.341 423.882,94.749 C422.072,96.358 421.013,98.619 421,101.16 C420.971,107.05 423.852,122.111 426.112,125.807 C427.201,127.588 428.882,128.67 431.017,129.209 C432.447,129.57 433.674,129.649 435.647,129.631 C436.056,129.627 436.176,129.626 436.332,129.629 C436.517,129.632 437.18,129.631 438.623,129.627 C438.882,129.626 442.433,129.613 443.774,129.609 C451.82,129.583 458.815,129.577 465.656,129.603 C465.708,129.603 465.708,129.603 465.76,129.603 L465.764,128.574 Z M429.563,93.566 C431.497,93.561 449.02,93.583 465.376,93.61 L465.378,92.581 C449.019,92.553 431.497,92.531 429.561,92.536 L429.563,93.566 Z M494.175,118.977 C494.175,117.757 493.689,116.586 492.825,115.723 C491.961,114.86 490.788,114.375 489.566,114.375 C488.344,114.375 487.172,114.86 486.307,115.723 C485.443,116.586 484.957,117.757 484.957,118.977 C484.957,120.198 485.443,121.369 486.307,122.232 C487.172,123.095 488.344,123.58 489.566,123.58 C490.788,123.58 491.961,123.095 492.825,122.232 C493.689,121.369 494.175,120.198 494.175,118.977 Z M493.143,118.977 C493.143,119.925 492.767,120.833 492.096,121.503 C491.425,122.173 490.515,122.55 489.566,122.55 C488.617,122.55 487.707,122.173 487.036,121.503 C486.366,120.833 485.989,119.925 485.989,118.977 C485.989,118.03 486.366,117.121 487.036,116.451 C487.707,115.781 488.617,115.405 489.566,115.405 C490.515,115.405 491.425,115.781 492.096,116.451 C492.767,117.121 493.143,118.03 493.143,118.977 Z M477.787,118.977 C477.787,117.757 477.301,116.586 476.437,115.723 C475.573,114.86 474.401,114.375 473.178,114.375 C471.956,114.375 470.784,114.86 469.919,115.723 C469.055,116.586 468.57,117.757 468.57,118.977 C468.57,120.198 469.055,121.369 469.919,122.232 C470.784,123.095 471.956,123.58 473.178,123.58 C474.401,123.58 475.573,123.095 476.437,122.232 C477.301,121.369 477.787,120.198 477.787,118.977 Z M476.756,118.977 C476.756,119.925 476.379,120.833 475.708,121.503 C475.037,122.173 474.127,122.55 473.178,122.55 C472.229,122.55 471.32,122.173 470.649,121.503 C469.978,120.833 469.601,119.925 469.601,118.977 C469.601,118.03 469.978,117.121 470.649,116.451 C471.32,115.781 472.229,115.405 473.178,115.405 C474.127,115.405 475.037,115.781 475.708,116.451 C476.379,117.121 476.756,118.03 476.756,118.977 Z M443.98,118.977 C443.98,120.95 442.378,122.55 440.403,122.55 C439.454,122.55 438.544,122.173 437.873,121.503 C437.202,120.833 436.825,119.925 436.825,118.977 C436.825,118.03 437.202,117.121 437.873,116.451 C438.544,115.781 439.454,115.405 440.403,115.405 C442.378,115.405 443.98,117.004 443.98,118.977 Z M445.011,118.977 C445.011,116.435 442.948,114.375 440.403,114.375 C439.18,114.375 438.008,114.86 437.144,115.723 C436.28,116.586 435.794,117.757 435.794,118.977 C435.794,120.198 436.28,121.369 437.144,122.232 C438.008,123.095 439.18,123.58 440.403,123.58 C442.948,123.58 445.011,121.519 445.011,118.977 Z M461.399,118.977 C461.399,116.435 459.336,114.375 456.791,114.375 C455.568,114.375 454.396,114.86 453.532,115.723 C452.667,116.586 452.182,117.757 452.182,118.977 C452.182,120.198 452.667,121.369 453.532,122.232 C454.396,123.095 455.568,123.58 456.791,123.58 C459.336,123.58 461.399,121.519 461.399,118.977 Z M460.368,118.977 C460.368,120.95 458.766,122.55 456.791,122.55 C455.842,122.55 454.932,122.173 454.261,121.503 C453.59,120.833 453.213,119.925 453.213,118.977 C453.213,118.03 453.59,117.121 454.261,116.451 C454.932,115.781 455.842,115.405 456.791,115.405 C458.766,115.405 460.368,117.004 460.368,118.977 Z M501.78,103.372 C501.78,105.385 500.176,107.013 498.203,107.013 C496.229,107.013 494.625,105.385 494.625,103.372 C494.625,101.36 496.229,99.732 498.203,99.732 C500.176,99.732 501.78,101.36 501.78,103.372 Z M502.811,103.372 C502.811,100.795 500.75,98.702 498.203,98.702 C495.655,98.702 493.594,100.795 493.594,103.372 C493.594,105.95 495.655,108.043 498.203,108.043 C500.75,108.043 502.811,105.95 502.811,103.372 Z M477.215,103.372 C477.215,105.95 479.277,108.043 481.824,108.043 C484.371,108.043 486.433,105.95 486.433,103.372 C486.433,100.795 484.371,98.702 481.824,98.702 C479.277,98.702 477.215,100.795 477.215,103.372 Z M478.246,103.372 C478.246,101.36 479.85,99.732 481.824,99.732 C483.798,99.732 485.401,101.36 485.401,103.372 C485.401,105.385 483.798,107.013 481.824,107.013 C479.85,107.013 478.246,105.385 478.246,103.372 Z M469.022,103.372 C469.022,105.383 467.39,107.013 465.377,107.013 C463.363,107.013 461.731,105.383 461.731,103.372 C461.731,102.407 462.115,101.481 462.799,100.798 C463.483,100.115 464.41,99.732 465.377,99.732 C466.344,99.732 467.271,100.115 467.955,100.798 C468.638,101.481 469.022,102.407 469.022,103.372 Z M470.054,103.372 C470.054,102.134 469.561,100.946 468.684,100.07 C467.807,99.194 466.617,98.702 465.377,98.702 C464.136,98.702 462.947,99.194 462.07,100.07 C461.193,100.946 460.7,102.134 460.7,103.372 C460.7,105.952 462.794,108.043 465.377,108.043 C467.96,108.043 470.054,105.952 470.054,103.372 Z M452.507,103.372 C452.507,105.385 450.904,107.013 448.93,107.013 C446.956,107.013 445.352,105.385 445.352,103.372 C445.352,101.36 446.956,99.732 448.93,99.732 C450.904,99.732 452.507,101.36 452.507,103.372 Z M453.538,103.372 C453.538,100.795 451.477,98.702 448.93,98.702 C446.382,98.702 444.321,100.795 444.321,103.372 C444.321,105.95 446.382,108.043 448.93,108.043 C451.477,108.043 453.538,105.95 453.538,103.372 Z M436.128,103.372 C436.128,105.385 434.525,107.013 432.551,107.013 C430.577,107.013 428.973,105.385 428.973,103.372 C428.973,101.36 430.577,99.732 432.551,99.732 C434.525,99.732 436.128,101.36 436.128,103.372 Z M437.16,103.372 C437.16,100.795 435.098,98.702 432.551,98.702 C430.004,98.702 427.942,100.795 427.942,103.372 C427.942,105.95 430.004,108.043 432.551,108.043 C435.098,108.043 437.16,105.95 437.16,103.372 Z" />
        </g>
        <g id="Black-S">
            <path d="M665.764,129.603 C678.397,129.555 692.564,129.48 693.668,129.46 C693.824,129.458 693.944,129.458 694.353,129.462 C696.326,129.48 697.554,129.402 698.983,129.041 C701.118,128.502 702.799,127.42 703.888,125.639 C706.148,121.943 709.029,106.881 709,100.991 C708.987,98.45 707.928,96.189 706.118,94.58 C704.534,93.172 702.482,92.371 700.439,92.367 L700.437,93.397 C702.225,93.401 704.035,94.107 705.432,95.349 C707.028,96.768 707.957,98.752 707.969,100.996 C707.997,106.713 705.149,121.6 703.008,125.102 C702.073,126.631 700.622,127.565 698.731,128.042 C697.411,128.375 696.252,128.449 694.362,128.432 C693.942,128.428 693.819,128.428 693.65,128.431 C692.553,128.45 678.383,128.525 665.76,128.574 L665.764,129.603 Z M700.439,92.367 C699.823,92.366 689.33,92.455 686.603,92.475 C679.286,92.53 672.575,92.566 666.225,92.579 C665.941,92.58 665.658,92.58 665.376,92.581 L665.378,93.61 C665.66,93.61 665.943,93.609 666.227,93.609 C672.58,93.596 679.292,93.56 686.611,93.505 C689.348,93.485 699.827,93.396 700.437,93.397 L700.439,92.367 Z M665.764,128.574 C665.712,128.573 665.712,128.573 665.66,128.573 C658.816,128.547 651.819,128.553 643.77,128.579 C642.429,128.583 638.878,128.596 638.619,128.597 C637.194,128.601 636.523,128.602 636.35,128.599 C636.181,128.596 636.058,128.597 635.638,128.601 C633.748,128.618 632.589,128.544 631.269,128.211 C629.378,127.733 627.927,126.799 626.992,125.271 C624.851,121.769 622.003,106.881 622.032,101.165 C622.043,98.921 622.972,96.936 624.568,95.518 C625.965,94.276 627.775,93.569 629.563,93.566 L629.561,92.536 C627.518,92.54 625.466,93.341 623.882,94.749 C622.072,96.358 621.013,98.619 621,101.16 C620.971,107.05 623.852,122.111 626.112,125.807 C627.201,127.588 628.883,128.67 631.017,129.209 C632.447,129.57 633.674,129.649 635.647,129.631 C636.056,129.627 636.176,129.626 636.332,129.629 C636.517,129.632 637.18,129.631 638.623,129.627 C638.882,129.626 642.433,129.613 643.774,129.609 C651.82,129.583 658.815,129.577 665.656,129.603 C665.708,129.603 665.708,129.603 665.76,129.603 L665.764,128.574 Z M629.563,93.566 C631.497,93.561 649.02,93.583 665.376,93.61 L665.378,92.581 C649.019,92.553 631.497,92.531 629.561,92.536 L629.563,93.566 Z M694.175,118.977 C694.175,117.757 693.689,116.586 692.825,115.723 C691.961,114.86 690.788,114.375 689.566,114.375 C688.344,114.375 687.172,114.86 686.307,115.723 C685.443,116.586 684.957,117.757 684.957,118.977 C684.957,120.198 685.443,121.369 686.307,122.232 C687.172,123.095 688.344,123.58 689.566,123.58 C690.788,123.58 691.961,123.095 692.825,122.232 C693.689,121.369 694.175,120.198 694.175,118.977 Z M693.143,118.977 C693.143,119.925 692.767,120.833 692.096,121.503 C691.425,122.173 690.515,122.55 689.566,122.55 C688.617,122.55 687.707,122.173 687.036,121.503 C686.366,120.833 685.989,119.925 685.989,118.977 C685.989,118.03 686.366,117.121 687.036,116.451 C687.707,115.781 688.617,115.405 689.566,115.405 C690.515,115.405 691.425,115.781 692.096,116.451 C692.767,117.121 693.143,118.03 693.143,118.977 Z M677.787,118.977 C677.787,117.757 677.302,116.586 676.437,115.723 C675.573,114.86 674.401,114.375 673.178,114.375 C671.956,114.375 670.784,114.86 669.919,115.723 C669.055,116.586 668.57,117.757 668.57,118.977 C668.57,120.198 669.055,121.369 669.919,122.232 C670.784,123.095 671.956,123.58 673.178,123.58 C674.401,123.58 675.573,123.095 676.437,122.232 C677.302,121.369 677.787,120.198 677.787,118.977 Z M676.756,118.977 C676.756,119.925 676.379,120.833 675.708,121.503 C675.037,122.173 674.127,122.55 673.178,122.55 C672.23,122.55 671.32,122.173 670.649,121.503 C669.978,120.833 669.601,119.925 669.601,118.977 C669.601,118.03 669.978,117.121 670.649,116.451 C671.32,115.781 672.23,115.405 673.178,115.405 C674.127,115.405 675.037,115.781 675.708,116.451 C676.379,117.121 676.756,118.03 676.756,118.977 Z M643.98,118.977 C643.98,120.95 642.379,122.55 640.403,122.55 C639.454,122.55 638.544,122.173 637.873,121.503 C637.202,120.833 636.825,119.925 636.825,118.977 C636.825,118.03 637.202,117.121 637.873,116.451 C638.544,115.781 639.454,115.405 640.403,115.405 C642.379,115.405 643.98,117.004 643.98,118.977 Z M645.012,118.977 C645.012,116.435 642.948,114.375 640.403,114.375 C639.18,114.375 638.008,114.86 637.144,115.723 C636.28,116.586 635.794,117.757 635.794,118.977 C635.794,120.198 636.28,121.369 637.144,122.232 C638.008,123.095 639.18,123.58 640.403,123.58 C642.948,123.58 645.012,121.519 645.012,118.977 Z M661.399,118.977 C661.399,116.435 659.336,114.375 656.791,114.375 C655.568,114.375 654.396,114.86 653.532,115.723 C652.667,116.586 652.182,117.757 652.182,118.977 C652.182,120.198 652.667,121.369 653.532,122.232 C654.396,123.095 655.568,123.58 656.791,123.58 C659.336,123.58 661.399,121.519 661.399,118.977 Z M660.368,118.977 C660.368,120.95 658.766,122.55 656.791,122.55 C655.842,122.55 654.932,122.173 654.261,121.503 C653.59,120.833 653.213,119.925 653.213,118.977 C653.213,118.03 653.59,117.121 654.261,116.451 C654.932,115.781 655.842,115.405 656.791,115.405 C658.766,115.405 660.368,117.004 660.368,118.977 Z M701.78,103.372 C701.78,105.385 700.177,107.013 698.203,107.013 C696.229,107.013 694.625,105.385 694.625,103.372 C694.625,101.36 696.229,99.732 698.203,99.732 C700.177,99.732 701.78,101.36 701.78,103.372 Z M702.811,103.372 C702.811,100.795 700.75,98.702 698.203,98.702 C695.655,98.702 693.594,100.795 693.594,103.372 C693.594,105.95 695.655,108.043 698.203,108.043 C700.75,108.043 702.811,105.95 702.811,103.372 Z M677.215,103.372 C677.215,105.95 679.277,108.043 681.824,108.043 C684.371,108.043 686.433,105.95 686.433,103.372 C686.433,100.795 684.371,98.702 681.824,98.702 C679.277,98.702 677.215,100.795 677.215,103.372 Z M678.246,103.372 C678.246,101.36 679.85,99.732 681.824,99.732 C683.798,99.732 685.401,101.36 685.401,103.372 C685.401,105.385 683.798,107.013 681.824,107.013 C679.85,107.013 678.246,105.385 678.246,103.372 Z M669.022,103.372 C669.022,105.383 667.39,107.013 665.377,107.013 C663.363,107.013 661.731,105.383 661.731,103.372 C661.731,102.407 662.115,101.481 662.799,100.798 C663.483,100.115 664.41,99.732 665.377,99.732 C666.344,99.732 667.271,100.115 667.955,100.798 C668.638,101.481 669.022,102.407 669.022,103.372 Z M670.054,103.372 C670.054,102.134 669.561,100.946 668.684,100.07 C667.807,99.194 666.617,98.702 665.377,98.702 C664.136,98.702 662.947,99.194 662.07,100.07 C661.193,100.946 660.7,102.134 660.7,103.372 C660.7,105.952 662.794,108.043 665.377,108.043 C667.96,108.043 670.054,105.952 670.054,103.372 Z M652.507,103.372 C652.507,105.385 650.904,107.013 648.93,107.013 C646.956,107.013 645.352,105.385 645.352,103.372 C645.352,101.36 646.956,99.732 648.93,99.732 C650.904,99.732 652.507,101.36 652.507,103.372 Z M653.539,103.372 C653.539,100.795 651.477,98.702 648.93,98.702 C646.383,98.702 644.321,100.795 644.321,103.372 C644.321,105.95 646.383,108.043 648.93,108.043 C651.477,108.043 653.539,105.95 653.539,103.372 Z M636.128,103.372 C636.128,105.385 634.525,107.013 632.551,107.013 C630.577,107.013 628.974,105.385 628.974,103.372 C628.974,101.36 630.577,99.732 632.551,99.732 C634.525,99.732 636.128,101.36 636.128,103.372 Z M637.16,103.372 C637.16,100.795 635.098,98.702 632.551,98.702 C630.004,98.702 627.942,100.795 627.942,103.372 C627.942,105.95 630.004,108.043 632.551,108.043 C635.098,108.043 637.16,105.95 637.16,103.372 Z" />
        </g>
    </g>
</svg>